<mxfile host="app.diagrams.net" modified="2022-08-09T13:12:29.145Z" agent="5.0 (Windows NT 10.0; Win64; x64) AppleWebKit/537.36 (KHTML, like Gecko) Chrome/103.0.0.0 Safari/537.36" etag="w7GZAe2CZpEZM3OiagWQ" version="20.2.0" type="github">
  <diagram id="vIOs2CNzDzOcCJmV5naC" name="Page-1">
    <mxGraphModel dx="1550" dy="834" grid="1" gridSize="10" guides="1" tooltips="1" connect="1" arrows="1" fold="1" page="1" pageScale="1" pageWidth="850" pageHeight="1100" math="0" shadow="0">
      <root>
        <mxCell id="0" />
        <mxCell id="1" parent="0" />
        <mxCell id="kyWrVT0l0PZg7O2zeIXY-3" style="edgeStyle=orthogonalEdgeStyle;rounded=0;orthogonalLoop=1;jettySize=auto;html=1;exitX=0.5;exitY=1;exitDx=0;exitDy=0;" edge="1" parent="1" source="kyWrVT0l0PZg7O2zeIXY-1">
          <mxGeometry relative="1" as="geometry">
            <mxPoint x="420" y="160" as="targetPoint" />
          </mxGeometry>
        </mxCell>
        <mxCell id="kyWrVT0l0PZg7O2zeIXY-1" value="Decision Node" style="rounded=1;whiteSpace=wrap;html=1;" vertex="1" parent="1">
          <mxGeometry x="360" y="90" width="120" height="30" as="geometry" />
        </mxCell>
        <mxCell id="kyWrVT0l0PZg7O2zeIXY-5" value="" style="endArrow=none;html=1;rounded=0;" edge="1" parent="1">
          <mxGeometry width="50" height="50" relative="1" as="geometry">
            <mxPoint x="280" y="160" as="sourcePoint" />
            <mxPoint x="560" y="160" as="targetPoint" />
            <Array as="points">
              <mxPoint x="425" y="160" />
            </Array>
          </mxGeometry>
        </mxCell>
        <mxCell id="kyWrVT0l0PZg7O2zeIXY-8" value="" style="endArrow=classic;html=1;rounded=0;startArrow=none;" edge="1" parent="1" source="kyWrVT0l0PZg7O2zeIXY-10">
          <mxGeometry width="50" height="50" relative="1" as="geometry">
            <mxPoint x="280" y="160" as="sourcePoint" />
            <mxPoint x="280" y="200" as="targetPoint" />
          </mxGeometry>
        </mxCell>
        <mxCell id="kyWrVT0l0PZg7O2zeIXY-9" value="" style="endArrow=classic;html=1;rounded=0;startArrow=none;" edge="1" parent="1" source="kyWrVT0l0PZg7O2zeIXY-12">
          <mxGeometry width="50" height="50" relative="1" as="geometry">
            <mxPoint x="560" y="160" as="sourcePoint" />
            <mxPoint x="560" y="200" as="targetPoint" />
          </mxGeometry>
        </mxCell>
        <mxCell id="kyWrVT0l0PZg7O2zeIXY-10" value="Decision Node" style="rounded=1;whiteSpace=wrap;html=1;" vertex="1" parent="1">
          <mxGeometry x="220" y="200" width="120" height="30" as="geometry" />
        </mxCell>
        <mxCell id="kyWrVT0l0PZg7O2zeIXY-11" value="" style="endArrow=none;html=1;rounded=0;" edge="1" parent="1" target="kyWrVT0l0PZg7O2zeIXY-10">
          <mxGeometry width="50" height="50" relative="1" as="geometry">
            <mxPoint x="280" y="160" as="sourcePoint" />
            <mxPoint x="280" y="200" as="targetPoint" />
          </mxGeometry>
        </mxCell>
        <mxCell id="kyWrVT0l0PZg7O2zeIXY-12" value="Decision Node&amp;nbsp;" style="rounded=1;whiteSpace=wrap;html=1;" vertex="1" parent="1">
          <mxGeometry x="500" y="200" width="120" height="30" as="geometry" />
        </mxCell>
        <mxCell id="kyWrVT0l0PZg7O2zeIXY-13" value="" style="endArrow=none;html=1;rounded=0;" edge="1" parent="1" target="kyWrVT0l0PZg7O2zeIXY-12">
          <mxGeometry width="50" height="50" relative="1" as="geometry">
            <mxPoint x="560" y="160" as="sourcePoint" />
            <mxPoint x="560" y="200" as="targetPoint" />
          </mxGeometry>
        </mxCell>
        <mxCell id="kyWrVT0l0PZg7O2zeIXY-14" value="Leaf node" style="ellipse;whiteSpace=wrap;html=1;" vertex="1" parent="1">
          <mxGeometry x="170" y="320" width="100" height="40" as="geometry" />
        </mxCell>
        <mxCell id="kyWrVT0l0PZg7O2zeIXY-16" style="edgeStyle=orthogonalEdgeStyle;rounded=0;orthogonalLoop=1;jettySize=auto;html=1;exitX=0.5;exitY=1;exitDx=0;exitDy=0;" edge="1" parent="1">
          <mxGeometry relative="1" as="geometry">
            <mxPoint x="559.5" y="270" as="targetPoint" />
            <mxPoint x="559.5" y="230" as="sourcePoint" />
          </mxGeometry>
        </mxCell>
        <mxCell id="kyWrVT0l0PZg7O2zeIXY-17" value="" style="endArrow=none;html=1;rounded=0;" edge="1" parent="1">
          <mxGeometry width="50" height="50" relative="1" as="geometry">
            <mxPoint x="220" y="270" as="sourcePoint" />
            <mxPoint x="340" y="270" as="targetPoint" />
            <Array as="points">
              <mxPoint x="295" y="270" />
            </Array>
          </mxGeometry>
        </mxCell>
        <mxCell id="kyWrVT0l0PZg7O2zeIXY-19" value="" style="endArrow=classic;html=1;rounded=0;" edge="1" parent="1">
          <mxGeometry width="50" height="50" relative="1" as="geometry">
            <mxPoint x="220" y="270" as="sourcePoint" />
            <mxPoint x="220" y="320" as="targetPoint" />
          </mxGeometry>
        </mxCell>
        <mxCell id="kyWrVT0l0PZg7O2zeIXY-21" value="" style="endArrow=classic;html=1;rounded=0;" edge="1" parent="1">
          <mxGeometry width="50" height="50" relative="1" as="geometry">
            <mxPoint x="340" y="270" as="sourcePoint" />
            <mxPoint x="340" y="320" as="targetPoint" />
          </mxGeometry>
        </mxCell>
        <mxCell id="kyWrVT0l0PZg7O2zeIXY-22" value="Leaf node" style="ellipse;whiteSpace=wrap;html=1;" vertex="1" parent="1">
          <mxGeometry x="300" y="320" width="100" height="40" as="geometry" />
        </mxCell>
        <mxCell id="kyWrVT0l0PZg7O2zeIXY-24" style="edgeStyle=orthogonalEdgeStyle;rounded=0;orthogonalLoop=1;jettySize=auto;html=1;exitX=0.5;exitY=1;exitDx=0;exitDy=0;" edge="1" parent="1">
          <mxGeometry relative="1" as="geometry">
            <mxPoint x="279.5" y="270" as="targetPoint" />
            <mxPoint x="279.5" y="230" as="sourcePoint" />
          </mxGeometry>
        </mxCell>
        <mxCell id="kyWrVT0l0PZg7O2zeIXY-25" value="" style="endArrow=none;html=1;rounded=0;" edge="1" parent="1">
          <mxGeometry width="50" height="50" relative="1" as="geometry">
            <mxPoint x="500" y="270" as="sourcePoint" />
            <mxPoint x="620" y="270" as="targetPoint" />
            <Array as="points">
              <mxPoint x="575" y="270" />
            </Array>
          </mxGeometry>
        </mxCell>
        <mxCell id="kyWrVT0l0PZg7O2zeIXY-26" value="Leaf Node" style="ellipse;whiteSpace=wrap;html=1;" vertex="1" parent="1">
          <mxGeometry x="450" y="320" width="100" height="40" as="geometry" />
        </mxCell>
        <mxCell id="kyWrVT0l0PZg7O2zeIXY-27" value="" style="endArrow=classic;html=1;rounded=0;" edge="1" parent="1">
          <mxGeometry width="50" height="50" relative="1" as="geometry">
            <mxPoint x="500" y="270" as="sourcePoint" />
            <mxPoint x="500" y="320" as="targetPoint" />
          </mxGeometry>
        </mxCell>
        <mxCell id="kyWrVT0l0PZg7O2zeIXY-29" value="Decision Node" style="rounded=1;whiteSpace=wrap;html=1;" vertex="1" parent="1">
          <mxGeometry x="580" y="320" width="100" height="40" as="geometry" />
        </mxCell>
        <mxCell id="kyWrVT0l0PZg7O2zeIXY-30" value="" style="endArrow=classic;html=1;rounded=0;" edge="1" parent="1">
          <mxGeometry width="50" height="50" relative="1" as="geometry">
            <mxPoint x="620" y="270" as="sourcePoint" />
            <mxPoint x="620" y="320" as="targetPoint" />
          </mxGeometry>
        </mxCell>
        <mxCell id="kyWrVT0l0PZg7O2zeIXY-31" style="edgeStyle=orthogonalEdgeStyle;rounded=0;orthogonalLoop=1;jettySize=auto;html=1;exitX=0.5;exitY=1;exitDx=0;exitDy=0;" edge="1" parent="1">
          <mxGeometry relative="1" as="geometry">
            <mxPoint x="629.5" y="400" as="targetPoint" />
            <mxPoint x="629.5" y="360" as="sourcePoint" />
          </mxGeometry>
        </mxCell>
        <mxCell id="kyWrVT0l0PZg7O2zeIXY-32" value="" style="endArrow=none;html=1;rounded=0;" edge="1" parent="1">
          <mxGeometry width="50" height="50" relative="1" as="geometry">
            <mxPoint x="570" y="400" as="sourcePoint" />
            <mxPoint x="690" y="400" as="targetPoint" />
            <Array as="points">
              <mxPoint x="610" y="400" />
              <mxPoint x="645" y="400" />
            </Array>
          </mxGeometry>
        </mxCell>
        <mxCell id="kyWrVT0l0PZg7O2zeIXY-33" value="" style="endArrow=classic;html=1;rounded=0;" edge="1" parent="1">
          <mxGeometry width="50" height="50" relative="1" as="geometry">
            <mxPoint x="570" y="400" as="sourcePoint" />
            <mxPoint x="570" y="450" as="targetPoint" />
          </mxGeometry>
        </mxCell>
        <mxCell id="kyWrVT0l0PZg7O2zeIXY-34" value="" style="endArrow=classic;html=1;rounded=0;" edge="1" parent="1">
          <mxGeometry width="50" height="50" relative="1" as="geometry">
            <mxPoint x="690" y="400" as="sourcePoint" />
            <mxPoint x="690" y="450" as="targetPoint" />
          </mxGeometry>
        </mxCell>
        <mxCell id="kyWrVT0l0PZg7O2zeIXY-35" value="Leaf node" style="ellipse;whiteSpace=wrap;html=1;" vertex="1" parent="1">
          <mxGeometry x="520" y="450" width="100" height="40" as="geometry" />
        </mxCell>
        <mxCell id="kyWrVT0l0PZg7O2zeIXY-36" value="Leaf node" style="ellipse;whiteSpace=wrap;html=1;" vertex="1" parent="1">
          <mxGeometry x="640" y="450" width="100" height="40" as="geometry" />
        </mxCell>
        <mxCell id="kyWrVT0l0PZg7O2zeIXY-38" value="Root Node" style="text;html=1;strokeColor=none;fillColor=none;align=center;verticalAlign=middle;whiteSpace=wrap;rounded=0;" vertex="1" parent="1">
          <mxGeometry x="510" y="60" width="60" height="30" as="geometry" />
        </mxCell>
        <mxCell id="kyWrVT0l0PZg7O2zeIXY-39" value="" style="endArrow=classic;html=1;rounded=0;" edge="1" parent="1">
          <mxGeometry width="50" height="50" relative="1" as="geometry">
            <mxPoint x="480" y="110" as="sourcePoint" />
            <mxPoint x="520" y="80" as="targetPoint" />
          </mxGeometry>
        </mxCell>
      </root>
    </mxGraphModel>
  </diagram>
</mxfile>
